<?xml version="1.0" encoding="UTF-8"?>
<svg id="Layer_1" xmlns="http://www.w3.org/2000/svg" version="1.1" viewBox="0 0 334.8 85.2">
  <!-- Generator: Adobe Illustrator 29.0.0, SVG Export Plug-In . SVG Version: 2.1.0 Build 186)  -->
  <defs>
    <style>
      .st0 {
        fill: #fff;
      }

      .st1 {
        fill: #cbcccd;
      }
    </style>
  </defs>
  <path class="st1" d="M96.9,44.1l-2.8-2.7h11.1c2.2,0,4.1-.4,5.8-1.3,1.7-.8,2.9-2,3.9-3.5.9-1.5,1.4-3.2,1.4-5.2s-.5-3.8-1.4-5.2c-.9-1.5-2.2-2.7-3.9-3.5-1.6-.8-3.6-1.3-5.8-1.3h-11.1l2.8-2.7v25.4M104.8,16.9c3.3,0,6.2.6,8.6,1.8,2.5,1.2,4.4,2.9,5.8,5.1s2.1,4.7,2.1,7.6-.7,5.4-2.1,7.6-3.3,3.9-5.8,5.1c-2.5,1.2-5.4,1.8-8.6,1.8h-13.1v-28.9h13.1ZM72,31.4l-2,12.9-2.4-2.9h22.4v4.4h-25.2l2.3-14.5-2.3-14.5h25v4.4h-22.2l2.4-2.9,2,12.9v.2ZM88.8,29.3v4.2h-20.2v-4.2h20.2ZM45.9,31.4l-2,12.9-2.4-2.9h22.4v4.4h-25.2l2.3-14.5-2.3-14.5h25v4.4h-22.2l2.4-2.9,2,12.9v.2ZM62.8,29.3v4.2h-20.2v-4.2h20.2ZM10.4,36.5h5.2c.1,1.2.6,2.2,1.5,3,.8.9,1.9,1.6,3.2,2,1.3.5,2.9.7,4.6.7,2.6,0,4.6-.4,6.2-1.2,1.5-.8,2.3-1.9,2.3-3.3s-.4-2-1.3-2.5c-.9-.6-2.4-1-4.7-1.3l-6.2-.8c-3.5-.5-6-1.3-7.6-2.6-1.6-1.3-2.4-3.1-2.4-5.4s.5-3.3,1.6-4.6c1.1-1.3,2.6-2.3,4.5-3,2-.7,4.2-1.1,6.9-1.1s4.9.4,6.9,1.2c2,.8,3.6,1.8,4.8,3.2,1.2,1.4,1.8,3,2,4.8h-5.2c0-1-.6-1.9-1.3-2.7-.7-.8-1.7-1.3-3-1.8-1.2-.4-2.7-.6-4.4-.6s-4.2.4-5.7,1.2c-1.4.8-2.1,1.8-2.1,3.1s.4,1.8,1.2,2.4c.8.6,2.3,1,4.4,1.3l6.3.9c2.6.4,4.6.8,6.2,1.5,1.5.6,2.6,1.4,3.2,2.4.6,1,1,2.3,1,3.9s-.6,3.5-1.7,4.9c-1.1,1.4-2.7,2.5-4.8,3.2-2,.8-4.4,1.1-7.2,1.1s-5.2-.4-7.3-1.3c-2.1-.8-3.8-2-5-3.5s-1.9-3.2-2-5.2h-.1Z"/>
  <path class="st1" d="M96.9,44.1l-2.8-2.7h11.1c2.2,0,4.1-.4,5.8-1.3,1.7-.8,2.9-2,3.9-3.5.9-1.5,1.4-3.2,1.4-5.2s-.5-3.8-1.4-5.2c-.9-1.5-2.2-2.7-3.9-3.5-1.6-.8-3.6-1.3-5.8-1.3h-11.1l2.8-2.7v25.4M104.8,16.9c3.3,0,6.2.6,8.6,1.8,2.5,1.2,4.4,2.9,5.8,5.1s2.1,4.7,2.1,7.6-.7,5.4-2.1,7.6-3.3,3.9-5.8,5.1c-2.5,1.2-5.4,1.8-8.6,1.8h-13.1v-28.9h13.1ZM72,31.4l-2,12.9-2.4-2.9h22.4v4.4h-25.2l2.3-14.5-2.3-14.5h25v4.4h-22.2l2.4-2.9,2,12.9v.2ZM88.8,29.3v4.2h-20.2v-4.2h20.2ZM45.9,31.4l-2,12.9-2.4-2.9h22.4v4.4h-25.2l2.3-14.5-2.3-14.5h25v4.4h-22.2l2.4-2.9,2,12.9v.2ZM62.8,29.3v4.2h-20.2v-4.2h20.2ZM10.4,36.5h5.2c.1,1.2.6,2.2,1.5,3,.8.9,1.9,1.6,3.2,2,1.3.5,2.9.7,4.6.7,2.6,0,4.6-.4,6.2-1.2,1.5-.8,2.3-1.9,2.3-3.3s-.4-2-1.3-2.5c-.9-.6-2.4-1-4.7-1.3l-6.2-.8c-3.5-.5-6-1.3-7.6-2.6-1.6-1.3-2.4-3.1-2.4-5.4s.5-3.3,1.6-4.6c1.1-1.3,2.6-2.3,4.5-3,2-.7,4.2-1.1,6.9-1.1s4.9.4,6.9,1.2c2,.8,3.6,1.8,4.8,3.2,1.2,1.4,1.8,3,2,4.8h-5.2c0-1-.6-1.9-1.3-2.7-.7-.8-1.7-1.3-3-1.8-1.2-.4-2.7-.6-4.4-.6s-4.2.4-5.7,1.2c-1.4.8-2.1,1.8-2.1,3.1s.4,1.8,1.2,2.4c.8.6,2.3,1,4.4,1.3l6.3.9c2.6.4,4.6.8,6.2,1.5,1.5.6,2.6,1.4,3.2,2.4.6,1,1,2.3,1,3.9s-.6,3.5-1.7,4.9c-1.1,1.4-2.7,2.5-4.8,3.2-2,.8-4.4,1.1-7.2,1.1s-5.2-.4-7.3-1.3c-2.1-.8-3.8-2-5-3.5s-1.9-3.2-2-5.2h-.1Z"/>
  <path class="st1" d="M296.4,36.5h5.2c.2,1.2.6,2.2,1.5,3.1.8.9,1.9,1.6,3.2,2,1.3.5,2.9.7,4.6.7,2.6,0,4.6-.4,6.2-1.2s2.3-1.9,2.3-3.3-.4-2-1.3-2.5c-.9-.6-2.4-1-4.7-1.3l-6.2-.8c-3.5-.5-6-1.3-7.6-2.6-1.6-1.3-2.4-3.1-2.4-5.4s.5-3.3,1.6-4.6c1.1-1.3,2.6-2.3,4.5-3s4.2-1.1,6.9-1.1,4.9.4,6.9,1.2c2,.8,3.6,1.8,4.8,3.2,1.2,1.4,1.8,3,1.9,4.8h-5.2c-.1-1-.6-1.9-1.3-2.7-.7-.8-1.7-1.3-2.9-1.8-1.2-.4-2.7-.6-4.4-.6s-4.2.4-5.7,1.2c-1.4.8-2.1,1.8-2.1,3.2s.4,1.8,1.2,2.4c.8.6,2.3,1,4.4,1.3l6.3.9c2.6.4,4.7.8,6.2,1.5,1.5.6,2.6,1.4,3.2,2.4s1,2.3,1,3.9-.6,3.5-1.7,4.9-2.7,2.5-4.8,3.2c-2,.8-4.4,1.1-7.1,1.1s-5.2-.4-7.4-1.3c-2.1-.8-3.8-2-5-3.5s-1.9-3.2-2-5.2M272.2,44.1l-2.8-2.7h11.1c2.2,0,4.1-.4,5.8-1.3,1.7-.8,2.9-2,3.9-3.5.9-1.5,1.4-3.3,1.4-5.2s-.5-3.8-1.4-5.2c-.9-1.5-2.2-2.7-3.9-3.5-1.7-.8-3.6-1.3-5.8-1.3h-11.2l2.8-2.7v25.4h.1ZM280.1,16.9c3.3,0,6.2.6,8.7,1.8,2.5,1.2,4.4,2.9,5.8,5.1s2.1,4.7,2.1,7.6-.7,5.4-2.1,7.6-3.3,3.9-5.8,5.1c-2.5,1.2-5.4,1.8-8.7,1.8h-13.1v-29s13.1,0,13.1,0ZM247.3,31.4l-2,12.9-2.4-2.9h22.4v4.4h-25.2l2.3-14.5-2.3-14.5h25v4.4h-22.2l2.4-2.9,2,12.9v.2ZM264.1,29.3v4.2h-20.2v-4.2h20.2ZM221.2,31.4l-2.1,12.9-2.4-2.9h22.4v4.4h-25.2l2.3-14.5-2.3-14.5h25v4.4h-22.3l2.4-2.9,2.1,12.9v.2ZM238,29.3v4.2h-20.2v-4.2h20.2Z"/>
  <path class="st1" d="M296.4,36.5h5.2c.2,1.2.6,2.2,1.5,3.1.8.9,1.9,1.6,3.2,2,1.3.5,2.9.7,4.6.7,2.6,0,4.6-.4,6.2-1.2s2.3-1.9,2.3-3.3-.4-2-1.3-2.5c-.9-.6-2.4-1-4.7-1.3l-6.2-.8c-3.5-.5-6-1.3-7.6-2.6-1.6-1.3-2.4-3.1-2.4-5.4s.5-3.3,1.6-4.6c1.1-1.3,2.6-2.3,4.5-3s4.2-1.1,6.9-1.1,4.9.4,6.9,1.2c2,.8,3.6,1.8,4.8,3.2,1.2,1.4,1.8,3,1.9,4.8h-5.2c-.1-1-.6-1.9-1.3-2.7-.7-.8-1.7-1.3-2.9-1.8-1.2-.4-2.7-.6-4.4-.6s-4.2.4-5.7,1.2c-1.4.8-2.1,1.8-2.1,3.2s.4,1.8,1.2,2.4c.8.6,2.3,1,4.4,1.3l6.3.9c2.6.4,4.7.8,6.2,1.5,1.5.6,2.6,1.4,3.2,2.4s1,2.3,1,3.9-.6,3.5-1.7,4.9-2.7,2.5-4.8,3.2c-2,.8-4.4,1.1-7.1,1.1s-5.2-.4-7.4-1.3c-2.1-.8-3.8-2-5-3.5s-1.9-3.2-2-5.2M272.2,44.1l-2.8-2.7h11.1c2.2,0,4.1-.4,5.8-1.3,1.7-.8,2.9-2,3.9-3.5.9-1.5,1.4-3.3,1.4-5.2s-.5-3.8-1.4-5.2c-.9-1.5-2.2-2.7-3.9-3.5-1.7-.8-3.6-1.3-5.8-1.3h-11.2l2.8-2.7v25.4h.1ZM280.1,16.9c3.3,0,6.2.6,8.7,1.8,2.5,1.2,4.4,2.9,5.8,5.1s2.1,4.7,2.1,7.6-.7,5.4-2.1,7.6-3.3,3.9-5.8,5.1c-2.5,1.2-5.4,1.8-8.7,1.8h-13.1v-29s13.1,0,13.1,0ZM247.3,31.4l-2,12.9-2.4-2.9h22.4v4.4h-25.2l2.3-14.5-2.3-14.5h25v4.4h-22.2l2.4-2.9,2,12.9v.2ZM264.1,29.3v4.2h-20.2v-4.2h20.2ZM221.2,31.4l-2.1,12.9-2.4-2.9h22.4v4.4h-25.2l2.3-14.5-2.3-14.5h25v4.4h-22.3l2.4-2.9,2.1,12.9v.2ZM238,29.3v4.2h-20.2v-4.2h20.2Z"/>
  <g>
    <path class="st0" d="M178.9,29.7h5.8l-8.3,10.3c-1.2,1.5-2.5,2.8-3.8,3.8s-2.8,1.8-4.3,2.3c-1.6.5-3.3.8-5.3.8s-4.5-.4-6.3-1.2c-1.7-.8-3.1-1.9-4-3.3-.9-1.4-1.4-2.9-1.4-4.5s.4-3,1.2-4.3,2-2.3,3.7-3.2c1.7-.9,3.7-1.5,6.3-1.9l1.4,2.2c-2.3.5-4,1.4-5.2,2.5s-1.8,2.5-1.8,4,.3,1.9.8,2.7,1.3,1.5,2.3,2,2.2.8,3.6.8c2.2,0,4-.4,5.5-1.3,1.5-.9,2.8-2.1,4-3.6l5.8-7.9M178.6,23.4h-5.4c-.2-1.5-.8-2.7-1.9-3.6-1.1-.9-2.6-1.4-4.6-1.4l-3,.5c-.9.3-1.5.8-2,1.4s-.7,1.3-.7,2.2l.6,2c.4.7,1.1,1.5,2.1,2.3l23,19.5h-7l-20.2-17c-1.4-1.2-2.5-2.4-3.2-3.5s-1.1-2.3-1.1-3.5.5-2.9,1.4-4.1,2.2-2.1,3.9-2.7c1.7-.7,3.7-1,6.1-1s4.6.4,6.3,1.2c1.8.8,3.1,1.8,4.1,3.2,1,1.4,1.5,2.9,1.6,4.6h0Z"/>
    <path class="st0" d="M178.9,29.7h5.8l-8.3,10.3c-1.2,1.5-2.5,2.8-3.8,3.8s-2.8,1.8-4.3,2.3c-1.6.5-3.3.8-5.3.8s-4.5-.4-6.3-1.2c-1.7-.8-3.1-1.9-4-3.3-.9-1.4-1.4-2.9-1.4-4.5s.4-3,1.2-4.3,2-2.3,3.7-3.2c1.7-.9,3.7-1.5,6.3-1.9l1.4,2.2c-2.3.5-4,1.4-5.2,2.5s-1.8,2.5-1.8,4,.3,1.9.8,2.7,1.3,1.5,2.3,2,2.2.8,3.6.8c2.2,0,4-.4,5.5-1.3,1.5-.9,2.8-2.1,4-3.6l5.8-7.9M178.6,23.4h-5.4c-.2-1.5-.8-2.7-1.9-3.6-1.1-.9-2.6-1.4-4.6-1.4l-3,.5c-.9.3-1.5.8-2,1.4s-.7,1.3-.7,2.2l.6,2c.4.7,1.1,1.5,2.1,2.3l23,19.5h-7l-20.2-17c-1.4-1.2-2.5-2.4-3.2-3.5s-1.1-2.3-1.1-3.5.5-2.9,1.4-4.1,2.2-2.1,3.9-2.7c1.7-.7,3.7-1,6.1-1s4.6.4,6.3,1.2c1.8.8,3.1,1.8,4.1,3.2,1,1.4,1.5,2.9,1.6,4.6h0Z"/>
    <path class="st0" d="M122.4,36.5h5.1c.2,1.2.6,2.2,1.4,3,.8.9,1.9,1.6,3.2,2,1.3.5,2.9.7,4.6.7,2.6,0,4.6-.4,6.1-1.2s2.3-1.9,2.3-3.3-.4-2-1.3-2.5c-.9-.6-2.4-1-4.7-1.3l-6.2-.8c-3.5-.5-6-1.3-7.5-2.6-1.6-1.3-2.4-3.1-2.4-5.4s.5-3.3,1.6-4.6c1-1.3,2.6-2.3,4.5-3,1.9-.7,4.2-1.1,6.8-1.1s4.8.4,6.8,1.2c2,.8,3.6,1.8,4.8,3.2,1.2,1.4,1.8,3,1.9,4.8h-5.1c-.1-1-.6-1.9-1.3-2.7-.7-.8-1.7-1.3-2.9-1.8-1.2-.4-2.7-.6-4.3-.6-2.3,0-4.2.4-5.6,1.2-1.4.8-2.1,1.8-2.1,3.2s.4,1.8,1.2,2.4,2.3,1,4.3,1.3l6.3.9c2.6.4,4.6.8,6.1,1.5,1.5.6,2.5,1.4,3.2,2.4.6,1,.9,2.3.9,3.9s-.6,3.5-1.7,4.9c-1.1,1.4-2.7,2.5-4.7,3.2-2,.8-4.4,1.1-7.1,1.1s-5.2-.4-7.3-1.3c-2.1-.8-3.8-2-5-3.5s-1.9-3.2-2-5.2"/>
    <path class="st0" d="M122.4,36.5h5.1c.2,1.2.6,2.2,1.4,3,.8.9,1.9,1.6,3.2,2,1.3.5,2.9.7,4.6.7,2.6,0,4.6-.4,6.1-1.2s2.3-1.9,2.3-3.3-.4-2-1.3-2.5c-.9-.6-2.4-1-4.7-1.3l-6.2-.8c-3.5-.5-6-1.3-7.5-2.6-1.6-1.3-2.4-3.1-2.4-5.4s.5-3.3,1.6-4.6c1-1.3,2.6-2.3,4.5-3,1.9-.7,4.2-1.1,6.8-1.1s4.8.4,6.8,1.2c2,.8,3.6,1.8,4.8,3.2,1.2,1.4,1.8,3,1.9,4.8h-5.1c-.1-1-.6-1.9-1.3-2.7-.7-.8-1.7-1.3-2.9-1.8-1.2-.4-2.7-.6-4.3-.6-2.3,0-4.2.4-5.6,1.2-1.4.8-2.1,1.8-2.1,3.2s.4,1.8,1.2,2.4,2.3,1,4.3,1.3l6.3.9c2.6.4,4.6.8,6.1,1.5,1.5.6,2.5,1.4,3.2,2.4.6,1,.9,2.3.9,3.9s-.6,3.5-1.7,4.9c-1.1,1.4-2.7,2.5-4.7,3.2-2,.8-4.4,1.1-7.1,1.1s-5.2-.4-7.3-1.3c-2.1-.8-3.8-2-5-3.5s-1.9-3.2-2-5.2"/>
    <path class="st0" d="M211.3,16.9v4.5h-21.6l2.8-2.9v27.4h-5.1v-29h23.9M189.9,29.6h20.8v4.5h-20.8s0-4.5,0-4.5Z"/>
    <path class="st0" d="M211.3,16.9v4.5h-21.6l2.8-2.9v27.4h-5.1v-29h23.9M189.9,29.6h20.8v4.5h-20.8s0-4.5,0-4.5Z"/>
    <path class="st0" d="M134.7,56.3v.4c-.3,0-.5.2-.8.5s-.6.7-.8,1.3l-4.8,12.3h-.3l-4.9-12.8c-.2-.5-.4-.9-.7-1-.3-.2-.5-.3-.7-.3v-.4h4.8v.4c-.5,0-.8,0-1,.2-.2,0-.4.3-.4.5s0,.6.2,1l3.8,10-.3.3,3.5-9.2c.3-.7.4-1.3.4-1.7s-.2-.7-.5-.9-.7-.3-1.3-.3v-.4h3.8Z"/>
    <path class="st0" d="M148.5,56.3v.4c-.3,0-.5.2-.8.5s-.5.7-.9,1.3l-4.1,8.1h-.3l-4.7-8.8c-.3-.5-.5-.8-.7-.9-.2,0-.3-.2-.5-.2v-.4h4.5v.4c-.3,0-.6,0-.9,0-.3,0-.4.2-.5.4s0,.5.2.9l3.4,6.6h-.2c0,0,2.7-5.3,2.7-5.3.4-.7.6-1.3.6-1.7s-.2-.7-.5-.8c-.3-.2-.8-.2-1.3-.3v-.4h4ZM143.7,64.5v4c0,.5,0,.9.1,1.1,0,.2.2.4.5.5.2,0,.6,0,1,.2v.4h-5.2v-.4c.5,0,.8,0,1-.2.2,0,.4-.2.5-.5,0-.2.1-.6.1-1.1v-4.2l1.1,1.3.8-1.1h0Z"/>
    <path class="st0" d="M157.2,56.2l4.9,12.8c.2.5.4.9.7,1,.3.2.5.3.7.3v.4h-4.8v-.4c.7,0,1.1,0,1.3-.4.2-.2.1-.7-.1-1.3l-3.8-10.1.3-.3-3.5,9.2c-.2.5-.3,1-.4,1.4,0,.4,0,.7.1.9.1.2.3.4.6.5.3,0,.6,0,1,.2v.4h-3.9v-.4c.3,0,.5-.2.8-.5.3-.2.5-.7.8-1.3l4.8-12.3h.5ZM159.7,64.8v.4h-6l.2-.4h5.8Z"/>
    <path class="st0" d="M179,56.3v.4c-.5,0-.8,0-1,.2-.2,0-.4.3-.5.6,0,.3-.1.7-.1,1.2v12.1h-.5l-8.5-13.2v10.7c0,.5,0,.9.1,1.1,0,.3.3.5.5.6s.7.2,1.2.2v.4h-4v-.4c.5,0,.8,0,1-.2.2,0,.4-.3.5-.6,0-.3.1-.7.1-1.1v-9.9c0-.5,0-.9-.1-1.1,0-.2-.2-.4-.5-.5-.2,0-.6,0-1-.2v-.4h3.5l7.2,11v-8.7c0-.5,0-.9-.1-1.2,0-.3-.3-.5-.5-.6-.3,0-.7-.2-1.2-.2v-.4h3.9v.2Z"/>
    <path class="st0" d="M188.3,56.2l4.9,12.8c.2.5.4.9.7,1,.3.2.5.3.7.3v.4h-4.8v-.4c.7,0,1.1,0,1.3-.4.2-.2.1-.7-.1-1.3l-3.8-10.1.3-.3-3.5,9.2c-.2.5-.3,1-.4,1.4,0,.4,0,.7.1.9.1.2.3.4.6.5.3,0,.6,0,1,.2v.4h-3.9v-.4c.3,0,.5-.2.8-.5.3-.2.5-.7.8-1.3l4.8-12.3h.5ZM190.8,64.8v.4h-6l.2-.4h5.8Z"/>
    <path class="st0" d="M197.4,70.7v-.4c.5,0,.8,0,1-.2.2,0,.4-.2.5-.5,0-.2.1-.6.1-1.1v-10.1c0-.5,0-.9-.1-1.1,0-.2-.2-.4-.5-.5-.2,0-.6,0-1-.2v-.4h5.2v.4c-.5,0-.8,0-1,.2-.2,0-.4.3-.5.5,0,.2-.1.6-.1,1.1v10.1c0,.5,0,.9.1,1.1,0,.2.2.4.5.5.2,0,.6,0,1,.2v.4h-5.2ZM200.2,63.6v-.4h8v.4h-8ZM205.9,70.7v-.4c.5,0,.8,0,1-.2.2,0,.4-.2.5-.5,0-.2.1-.6.1-1.1v-10.1c0-.5,0-.9-.1-1.1,0-.2-.2-.4-.5-.5-.2,0-.6,0-1-.2v-.4h5.2v.4c-.5,0-.8,0-1,.2-.2,0-.4.3-.5.5,0,.2-.1.6-.1,1.1v10.1c0,.5,0,.9.1,1.1,0,.2.2.4.5.5.2,0,.6,0,1,.2v.4h-5.2Z"/>
  </g>
</svg>