<?xml version="1.0" encoding="UTF-8"?>
<svg id="Layer_1" data-name="Layer 1" xmlns="http://www.w3.org/2000/svg" version="1.1" viewBox="0 0 334.8 85.2">
  <defs>
    <style>
      .cls-1 {
        fill: #010101;
      }

      .cls-1, .cls-2, .cls-3, .cls-4 {
        stroke-width: 0px;
      }

      .cls-2 {
        fill: #ccc;
      }

      .cls-3 {
        fill: #b1b3b6;
      }

      .cls-4 {
        fill: #fff;
      }
    </style>
  </defs>
  <g>
    <path class="cls-3" d="M96.85,46.36l-2.81-2.7h11.13c2.21,0,4.14-.42,5.8-1.25,1.66-.83,2.94-2,3.85-3.51.91-1.5,1.37-3.24,1.37-5.22s-.46-3.75-1.37-5.24c-.91-1.49-2.2-2.65-3.85-3.49-1.66-.83-3.59-1.25-5.8-1.25h-11.13l2.81-2.7v25.35ZM104.82,19.24c3.29,0,6.17.6,8.65,1.81,2.48,1.21,4.41,2.9,5.8,5.07,1.39,2.17,2.08,4.69,2.08,7.57s-.69,5.4-2.08,7.57c-1.39,2.17-3.32,3.86-5.8,5.07-2.48,1.21-5.36,1.81-8.65,1.81h-13.06v-28.9h13.06ZM71.96,33.69l-2.04,12.91-2.43-2.85h22.42v4.39h-25.2l2.31-14.45-2.31-14.45h25.01v4.39h-22.23l2.43-2.85,2.04,12.91ZM88.8,31.57v4.24h-20.19v-4.24h20.19ZM45.92,33.69l-2.04,12.91-2.43-2.85h22.42v4.39h-25.2l2.31-14.45-2.31-14.45h25v4.39h-22.23l2.43-2.85,2.04,12.91ZM62.76,31.57v4.24h-20.19v-4.24h20.19ZM10.44,38.74h5.16c.15,1.16.64,2.17,1.45,3.04.81.87,1.88,1.55,3.22,2.02,1.34.48,2.88.71,4.62.71,2.59,0,4.65-.4,6.16-1.21,1.52-.81,2.27-1.91,2.27-3.29,0-1.13-.44-1.98-1.31-2.54-.87-.57-2.45-.99-4.74-1.27l-6.24-.81c-3.49-.46-6.03-1.33-7.61-2.6-1.58-1.27-2.37-3.08-2.37-5.41,0-1.77.53-3.31,1.6-4.6,1.07-1.3,2.58-2.3,4.53-3.01,1.95-.71,4.24-1.06,6.86-1.06s4.89.39,6.9,1.16c2,.77,3.6,1.84,4.8,3.22,1.19,1.37,1.84,2.99,1.95,4.84h-5.16c-.13-1.03-.56-1.91-1.29-2.66-.73-.75-1.71-1.33-2.95-1.75-1.23-.42-2.68-.64-4.35-.64-2.36,0-4.25.39-5.66,1.16-1.41.77-2.12,1.82-2.12,3.16,0,1.03.42,1.82,1.25,2.37.83.55,2.29.97,4.37,1.25l6.32.89c2.59.36,4.64.84,6.15,1.45,1.5.6,2.58,1.41,3.22,2.43.64,1.01.96,2.32.96,3.91,0,1.85-.57,3.47-1.7,4.85-1.13,1.39-2.72,2.46-4.76,3.22-2.04.76-4.42,1.14-7.15,1.14s-5.22-.42-7.34-1.25c-2.12-.83-3.79-2-5.03-3.49-1.23-1.49-1.9-3.22-2-5.2Z"/>
    <path class="cls-3" d="M296.36,38.74h5.17c.15,1.16.64,2.17,1.45,3.05.81.87,1.88,1.55,3.22,2.02,1.34.48,2.88.71,4.63.71,2.6,0,4.65-.4,6.17-1.21,1.52-.81,2.28-1.91,2.28-3.3,0-1.13-.44-1.98-1.31-2.54-.87-.57-2.45-.99-4.74-1.27l-6.25-.81c-3.5-.46-6.03-1.33-7.62-2.6-1.58-1.27-2.37-3.08-2.37-5.42,0-1.77.53-3.31,1.6-4.61,1.07-1.3,2.58-2.3,4.53-3.01,1.95-.71,4.24-1.06,6.86-1.06s4.9.39,6.9,1.16c2,.77,3.61,1.84,4.8,3.22,1.2,1.38,1.84,2.99,1.95,4.84h-5.17c-.13-1.03-.56-1.91-1.29-2.66-.73-.75-1.72-1.33-2.95-1.75-1.23-.42-2.69-.64-4.36-.64-2.37,0-4.25.39-5.67,1.16-1.41.77-2.12,1.83-2.12,3.16,0,1.03.42,1.82,1.25,2.37.84.55,2.29.97,4.38,1.25l6.32.89c2.6.36,4.65.84,6.15,1.45,1.5.6,2.58,1.41,3.22,2.43.64,1.02.96,2.32.96,3.91,0,1.85-.57,3.47-1.7,4.86-1.13,1.39-2.72,2.46-4.76,3.22-2.04.76-4.43,1.14-7.15,1.14s-5.23-.42-7.35-1.25c-2.12-.84-3.8-2-5.03-3.49-1.23-1.49-1.9-3.23-2.01-5.21M272.15,46.37l-2.81-2.7h11.14c2.21,0,4.15-.42,5.8-1.25,1.66-.84,2.94-2,3.86-3.51.91-1.5,1.37-3.25,1.37-5.22s-.46-3.75-1.37-5.24c-.91-1.49-2.2-2.65-3.86-3.49-1.66-.84-3.59-1.25-5.8-1.25h-11.14l2.81-2.7v25.37ZM280.14,19.23c3.29,0,6.18.6,8.66,1.81,2.48,1.21,4.42,2.9,5.8,5.07,1.39,2.17,2.08,4.7,2.08,7.58s-.69,5.4-2.08,7.58c-1.39,2.17-3.32,3.86-5.8,5.07-2.48,1.21-5.37,1.81-8.66,1.81h-13.07v-28.92h13.07ZM247.25,33.69l-2.04,12.92-2.43-2.85h22.44v4.4h-25.22l2.31-14.46-2.31-14.46h25.03v4.4h-22.25l2.43-2.85,2.04,12.92ZM264.1,31.57v4.24h-20.21v-4.24h20.21ZM221.19,33.69l-2.04,12.92-2.43-2.85h22.44v4.4h-25.22l2.31-14.46-2.31-14.46h25.03v4.4h-22.25l2.43-2.85,2.04,12.92ZM238.04,31.57v4.24h-20.21v-4.24h20.21Z"/>
  </g>
  <path class="cls-1" d="M205.39,63.58l-2.09-4.99-2.1,4.99h4.19ZM210.07,68.21h-4.6v-.34c.87,0,1.29-.22,1.28-.67,0-.15-.05-.36-.16-.65l-.91-2.23h-4.77l-.75,1.89c-.13.32-.2.6-.22.83,0,.56.42.83,1.26.83v.34h-3.59v-.34c.67,0,1.26-.59,1.75-1.77l4.24-10.08h.38l4.67,10.73c.32.74.8,1.12,1.42,1.12v.34ZM188.02,68.21h-5.37v-.34c1.18,0,1.77-.4,1.77-1.21v-8.87c0-.78-.59-1.17-1.77-1.17v-.34h5.37v.34c-1.18,0-1.77.39-1.77,1.17v8.87c0,.81.59,1.21,1.77,1.21v.34ZM170.68,62.26c0-1.54-.43-2.78-1.28-3.73-.96-1.06-2.34-1.59-4.13-1.59-.47,0-.77.03-.9.09-.18.08-.27.29-.27.63v8.94c0,.58.39.87,1.17.87,1.81,0,3.19-.5,4.13-1.5.85-.91,1.28-2.15,1.28-3.71ZM172.73,62.26c0,2.01-.71,3.53-2.13,4.58-1.24.91-2.84,1.37-4.8,1.37h-5.14v-.34c.61,0,1.04-.11,1.28-.32.2-.18.31-.47.31-.88v-8.87c0-.78-.53-1.17-1.59-1.17v-.34h5.14c2.01,0,3.62.47,4.85,1.41,1.38,1.06,2.07,2.58,2.07,4.58ZM151.05,56.62c-1.17,0-1.75.4-1.75,1.21v10.64h-.25s-8.03-9.91-8.03-9.91v8.2c0,.74.58,1.12,1.75,1.12v.34h-4.29v-.34c1.17,0,1.75-.43,1.75-1.28v-8.96c-.3-.37-.49-.59-.56-.65-.3-.24-.7-.36-1.19-.36v-.34h3.1l6.92,8.67v-7.21c0-.75-.58-1.12-1.75-1.12v-.34h4.29v.34ZM128.94,68.21h-5.37v-.34c1.18,0,1.77-.4,1.77-1.21v-8.87c0-.78-.59-1.17-1.77-1.17v-.34h5.37v.34c-1.18,0-1.77.39-1.77,1.17v8.87c0,.81.59,1.21,1.77,1.21v.34Z"/>
  <path class="cls-2" d="M205.39,63.58l-2.09-4.99-2.1,4.99h4.19ZM210.07,68.21h-4.6v-.34c.87,0,1.29-.22,1.28-.67,0-.15-.05-.36-.16-.65l-.91-2.23h-4.77l-.75,1.89c-.13.32-.2.6-.22.83,0,.56.42.83,1.26.83v.34h-3.59v-.34c.67,0,1.26-.59,1.75-1.77l4.24-10.08h.38l4.67,10.73c.32.74.8,1.12,1.42,1.12v.34ZM188.02,68.21h-5.37v-.34c1.18,0,1.77-.4,1.77-1.21v-8.87c0-.78-.59-1.17-1.77-1.17v-.34h5.37v.34c-1.18,0-1.77.39-1.77,1.17v8.87c0,.81.59,1.21,1.77,1.21v.34ZM170.68,62.26c0-1.54-.43-2.78-1.28-3.73-.96-1.06-2.34-1.59-4.13-1.59-.47,0-.77.03-.9.09-.18.08-.27.29-.27.63v8.94c0,.58.39.87,1.17.87,1.81,0,3.19-.5,4.13-1.5.85-.91,1.28-2.15,1.28-3.71ZM172.73,62.26c0,2.01-.71,3.53-2.13,4.58-1.24.91-2.84,1.37-4.8,1.37h-5.14v-.34c.61,0,1.04-.11,1.28-.32.2-.18.31-.47.31-.88v-8.87c0-.78-.53-1.17-1.59-1.17v-.34h5.14c2.01,0,3.62.47,4.85,1.41,1.38,1.06,2.07,2.58,2.07,4.58ZM151.05,56.62c-1.17,0-1.75.4-1.75,1.21v10.64h-.25s-8.03-9.91-8.03-9.91v8.2c0,.74.58,1.12,1.75,1.12v.34h-4.29v-.34c1.17,0,1.75-.43,1.75-1.28v-8.96c-.3-.37-.49-.59-.56-.65-.3-.24-.7-.36-1.19-.36v-.34h3.1l6.92,8.67v-7.21c0-.75-.58-1.12-1.75-1.12v-.34h4.29v.34ZM128.94,68.21h-5.37v-.34c1.18,0,1.77-.4,1.77-1.21v-8.87c0-.78-.59-1.17-1.77-1.17v-.34h5.37v.34c-1.18,0-1.77.39-1.77,1.17v8.87c0,.81.59,1.21,1.77,1.21v.34Z"/>
  <path class="cls-4" d="M178.9,32.02h5.79l-8.29,10.25c-1.22,1.53-2.49,2.8-3.81,3.81-1.32,1.01-2.76,1.78-4.31,2.29-1.55.51-3.32.77-5.29.77-2.44,0-4.53-.41-6.27-1.23-1.74-.82-3.07-1.91-4-3.27-.93-1.36-1.4-2.87-1.4-4.54s.4-3.01,1.21-4.27c.81-1.26,2.03-2.34,3.69-3.23,1.65-.89,3.74-1.51,6.27-1.87l1.37,2.21c-2.28.53-4.03,1.36-5.25,2.5-1.22,1.14-1.83,2.47-1.83,4,0,.97.27,1.87.81,2.71.54.83,1.32,1.5,2.33,2,1.01.5,2.23.75,3.64.75,2.19,0,4.04-.44,5.54-1.33,1.5-.89,2.82-2.1,3.96-3.62l5.83-7.91ZM178.61,25.73h-5.41c-.19-1.47-.84-2.67-1.94-3.58-1.1-.92-2.63-1.37-4.6-1.37-1.14,0-2.14.15-3,.46-.86.31-1.53.76-2.02,1.35-.49.6-.73,1.33-.73,2.19,0,.61.2,1.28.6,2,.4.72,1.1,1.5,2.1,2.33l22.99,19.45h-7.04l-20.16-16.99c-1.42-1.22-2.48-2.4-3.19-3.54-.71-1.14-1.06-2.32-1.06-3.54,0-1.55.46-2.91,1.37-4.06.92-1.15,2.23-2.05,3.94-2.71,1.71-.65,3.73-.98,6.06-.98,2.47,0,4.59.39,6.35,1.17,1.76.78,3.13,1.84,4.1,3.19.97,1.35,1.51,2.89,1.62,4.64Z"/>
  <path class="cls-4" d="M122.39,38.74h5.11c.15,1.16.63,2.17,1.43,3.04.8.87,1.86,1.55,3.19,2.02,1.32.48,2.85.71,4.58.71,2.57,0,4.6-.4,6.1-1.21,1.5-.81,2.25-1.91,2.25-3.29,0-1.13-.43-1.98-1.3-2.54-.86-.57-2.43-.99-4.69-1.27l-6.18-.81c-3.46-.46-5.97-1.33-7.54-2.6-1.56-1.27-2.35-3.08-2.35-5.41,0-1.77.53-3.31,1.58-4.6,1.06-1.3,2.55-2.3,4.48-3.01,1.93-.71,4.2-1.06,6.79-1.06s4.85.39,6.83,1.16c1.98.77,3.57,1.84,4.75,3.22,1.18,1.37,1.83,2.99,1.93,4.84h-5.11c-.13-1.03-.55-1.91-1.28-2.66-.72-.75-1.7-1.33-2.92-1.75-1.22-.42-2.66-.64-4.31-.64-2.34,0-4.21.39-5.61,1.16-1.4.77-2.1,1.82-2.1,3.16,0,1.03.41,1.82,1.24,2.37.83.55,2.27.97,4.33,1.25l6.26.89c2.57.36,4.6.84,6.09,1.45,1.49.6,2.55,1.41,3.19,2.43.64,1.01.95,2.32.95,3.91,0,1.85-.56,3.47-1.68,4.85-1.12,1.39-2.69,2.46-4.71,3.22-2.02.76-4.38,1.14-7.08,1.14s-5.17-.42-7.27-1.25c-2.1-.83-3.76-2-4.98-3.49-1.22-1.49-1.88-3.22-1.98-5.2"/>
  <path class="cls-4" d="M211.25,19.23v4.47h-21.55l2.78-2.89v27.34h-5.09v-28.92h23.87ZM189.85,31.88h20.78v4.47h-20.78v-4.47Z"/>
</svg>